# xmcd
#
# Track frame offsets: 
#        150
#        10373
#        22032
#        39163
#        54056
#        63487
#        76109
#        91206
#        105469
#        119273
#        130849
#        144201
#        163037
#        178011
#        192087
#        205999
#        218795
#        233656
#        248099
#        258879
#        274899
#        289812
#        304944
#        321903
#        337411
#
# Disc length: 4663 seconds
#
# Revision: 21
# Processed by: cddbd v1.5.2PL0 Copyright (c) Steve Scherf et al.
# Submitted via: ExactAudioCopyFreeDBPlugin 1.0
#
DISCID=5f123519
DTITLE=George Strait - 50 Number Ones [CD#02)
DYEAR=2004
DGENRE=Country
TTITLE0=Heartland (from "Pure Country Soundtrack", 1992)
TTITLE1=Easy Come, Easy Go (from "Easy Come Easy Go", 1993)
TTITLE2=I'd Like To Have That One Back (from "Easy Come Easy Go", 1993
TTITLE2=)
TTITLE3=The Man In Love With You (from "Easy Come Easy Go", 1993)
TTITLE4=The Big One (from "Lead On", 1994)
TTITLE5=You Can't Make A Heart Love Somebody (from "Lead On", 1994)
TTITLE6=Lead On (from "Lead On", 1994)
TTITLE7=Check Yes Or No (from "Strait Out of the Box", 1995)
TTITLE8=I Know She Still Loves Me (from "Strait Out of the Box", 1995)
TTITLE9=Blue Clear Sky (from, "Blue Clear Sky", 1996)
TTITLE10=Carried Away (from, "Blue Clear Sky", 1996)
TTITLE11=I Can Still Make Cheyenne (from, "Blue Clear Sky", 1996)
TTITLE12=One Night At A Time (from "Carrying Your Love with Me", 1997)
TTITLE13=Carrying Your Love With Me (from "Carrying Your Love with Me"
TTITLE13=, 1997)
TTITLE14=Today My World Slipped Away (from "Carrying Your Love with Me
TTITLE14=", 1997)
TTITLE15=Round About Way (from "Carrying Your Love with Me", 1997)
TTITLE16=I Just Want To Dance With You (from "One Step at a Time", 199
TTITLE16=8)
TTITLE17=True (from "One Step at a Time", 1998)
TTITLE18=We Really Shouldn't Be Doing This (from "One Step at a Time",
TTITLE18=1998)
TTITLE19=Write This Down (from "Always Never the Same", 1999)
TTITLE20=The Best Day (from "Latest Greatest Straitest Hits", 2000)
TTITLE21=Go On (from "George Strait", 2000)
TTITLE22=Run (from "The Road Less Traveled", 2001)
TTITLE23=Living And Living Well (from "The Road Less Traveled", 2001)
TTITLE24=She'll Leave You With A Smile (from "The Road Less Traveled",
TTITLE24=2001)
EXTD=YEAR: 2004
EXTT0=
EXTT1=
EXTT2=
EXTT3=
EXTT4=
EXTT5=
EXTT6=
EXTT7=
EXTT8=
EXTT9=
EXTT10=
EXTT11=
EXTT12=
EXTT13=
EXTT14=
EXTT15=
EXTT16=
EXTT17=
EXTT18=
EXTT19=
EXTT20=
EXTT21=
EXTT22=
EXTT23=
EXTT24=
PLAYORDER=
